<svg xmlns="http://www.w3.org/2000/svg" width="2240" height="540" viewBox="0 0 2240 540" role="img" aria-labelledby="title desc"><title id="title">HTA de Rafael Almeida</title><desc id="desc">Modelo documental da tarefa de Rafael Almeida. Notação de Barbosa e Silva (2010), figuras 6.1–6.2 e 6.4–6.6. Não representa sessão observada.</desc><defs>
<g id="usuario" fill="white" stroke="#222" stroke-width="1.7">
 <circle cx="0" cy="-15" r="9"/><path d="M-5,-7 Q-20,-3 -20,5 V29 H20 V5 Q20,-3 5,-7"/><path d="M-12,6 V29 M12,6 V29"/>
</g>
<g id="sistema" fill="white" stroke="#222" stroke-width="1.7">
 <rect x="-24" y="-21" width="48" height="34" rx="16"/><rect x="-20" y="-17" width="40" height="26" rx="12"/><rect x="-24" y="19" width="48" height="8" rx="4"/>
</g>
<g id="interativa">
 <use href="#sistema" transform="translate(-29,0) scale(.8)"/><use href="#usuario" transform="translate(31,0) scale(.9)"/>
 <path d="M-12,-3 H-4 V-9 L8,1 -4,11 V5 H-12 V11 L-24,1 -12,-9 Z" fill="#555"/>
</g>
<g id="abstrata" fill="white" stroke="#222" stroke-width="1.7">
 <path d="M-28,13 C-43,10 -41,-3 -33,-6 C-40,-17 -28,-26 -18,-21 C-14,-33 0,-29 3,-23 C12,-33 26,-26 25,-18 C39,-21 44,-7 35,0 C43,11 31,20 23,16 C20,29 6,29 1,22 C-9,30 -22,25 -22,18 C-30,24 -36,19 -28,13 Z"/>
</g>
</defs><rect width="100%" height="100%" fill="white"/><g font-family="Arial, sans-serif" fill="#151515"><text x="1120" y="32" font-size="24" text-anchor="middle">HTA — organizar a participação da turma e obter a declaração</text><rect x="855.0" y="65" width="530" height="82" fill="white" stroke="#222" stroke-width="1.6"/><text x="1120" y="89" font-size="17" text-anchor="middle">0. Organizar a participação da turma</text><text x="1120" y="111" font-size="17" text-anchor="middle">e obter a declaração</text><text x="1120" y="133" font-size="17" text-anchor="middle">1 &gt; 2 &gt; 3 &gt; 4</text><path d="M1120,147 L1120,178" fill="none" stroke="#222" stroke-width="1.6"/><path d="M190,178 L2050,178" fill="none" stroke="#222" stroke-width="1.6"/><path d="M190,178 L190,207" fill="none" stroke="#222" stroke-width="1.6"/><path d="M186,199 L190,207 L194,199 Z"/><rect x="50.0" y="207" width="280" height="82" fill="white" stroke="#222" stroke-width="1.6"/><text x="190" y="231" font-size="17" text-anchor="middle">1. Preparar</text><text x="190" y="253" font-size="17" text-anchor="middle">a oficina</text><text x="190" y="275" font-size="17" text-anchor="middle">1 &gt; 2</text><path d="M190,289 L190,325" fill="none" stroke="#222" stroke-width="1.6"/><path d="M100,325 L280,325" fill="none" stroke="#222" stroke-width="1.6"/><path d="M100,325 L100,355" fill="none" stroke="#222" stroke-width="1.6"/><path d="M96,347 L100,355 L104,347 Z"/><rect x="18.0" y="355" width="164" height="82" fill="white" stroke="#222" stroke-width="1.6"/><text x="100" y="379" font-size="17" text-anchor="middle">1.1 Examinar</text><text x="100" y="401" font-size="17" text-anchor="middle">orientações</text><text x="100" y="423" font-size="17" text-anchor="middle">e material</text><path d="M18.0,443 L182.0,443" fill="none" stroke="#222" stroke-width="1.6"/><path d="M280,325 L280,355" fill="none" stroke="#222" stroke-width="1.6"/><path d="M276,347 L280,355 L284,347 Z"/><rect x="198.0" y="355" width="164" height="82" fill="white" stroke="#222" stroke-width="1.6"/><text x="280" y="379" font-size="17" text-anchor="middle">1.2 Planejar</text><text x="280" y="401" font-size="17" text-anchor="middle">atividades</text><path d="M198.0,443 L362.0,443" fill="none" stroke="#222" stroke-width="1.6"/><path d="M660,178 L660,207" fill="none" stroke="#222" stroke-width="1.6"/><path d="M656,199 L660,207 L664,199 Z"/><rect x="520.0" y="207" width="280" height="82" fill="white" stroke="#222" stroke-width="1.6"/><text x="660" y="231" font-size="17" text-anchor="middle">2. Estabelecer</text><text x="660" y="253" font-size="17" text-anchor="middle">o vínculo</text><text x="660" y="275" font-size="17" text-anchor="middle">1 &gt; 2 &gt; 3</text><path d="M660,289 L660,325" fill="none" stroke="#222" stroke-width="1.6"/><path d="M480,325 L840,325" fill="none" stroke="#222" stroke-width="1.6"/><path d="M480,325 L480,355" fill="none" stroke="#222" stroke-width="1.6"/><path d="M476,347 L480,355 L484,347 Z"/><rect x="398.0" y="355" width="164" height="82" fill="white" stroke="#222" stroke-width="1.6"/><text x="480" y="379" font-size="17" text-anchor="middle">2.1 Autenticar</text><text x="480" y="401" font-size="17" text-anchor="middle">professor</text><path d="M398.0,443 L562.0,443" fill="none" stroke="#222" stroke-width="1.6"/><path d="M660,325 L660,355" fill="none" stroke="#222" stroke-width="1.6"/><path d="M656,347 L660,355 L664,347 Z"/><rect x="578.0" y="355" width="164" height="82" fill="white" stroke="#222" stroke-width="1.6"/><text x="660" y="379" font-size="17" text-anchor="middle">2.2 Informar</text><text x="660" y="401" font-size="17" text-anchor="middle">instituição</text><text x="660" y="423" font-size="17" text-anchor="middle">e turma</text><path d="M578.0,443 L742.0,443" fill="none" stroke="#222" stroke-width="1.6"/><path d="M840,325 L840,355" fill="none" stroke="#222" stroke-width="1.6"/><path d="M836,347 L840,355 L844,347 Z"/><rect x="758.0" y="355" width="164" height="82" fill="white" stroke="#222" stroke-width="1.6"/><text x="840" y="379" font-size="17" text-anchor="middle">2.3 Obter código</text><text x="840" y="401" font-size="17" text-anchor="middle">da turma</text><path d="M758.0,443 L922.0,443" fill="none" stroke="#222" stroke-width="1.6"/><path d="M1400,178 L1400,207" fill="none" stroke="#222" stroke-width="1.6"/><path d="M1396,199 L1400,207 L1404,199 Z"/><rect x="1260.0" y="207" width="280" height="82" fill="white" stroke="#222" stroke-width="1.6"/><text x="1400" y="231" font-size="17" text-anchor="middle">3. Coordenar</text><text x="1400" y="253" font-size="17" text-anchor="middle">a participação</text><text x="1400" y="275" font-size="17" text-anchor="middle">1 &gt; 2 &gt; 3 &gt; 4 &gt; 5</text><path d="M1400,289 L1400,325" fill="none" stroke="#222" stroke-width="1.6"/><path d="M1040,325 L1760,325" fill="none" stroke="#222" stroke-width="1.6"/><path d="M1040,325 L1040,355" fill="none" stroke="#222" stroke-width="1.6"/><path d="M1036,347 L1040,355 L1044,347 Z"/><rect x="958.0" y="355" width="164" height="82" fill="white" stroke="#222" stroke-width="1.6"/><text x="1040" y="379" font-size="17" text-anchor="middle">3.1 Repassar</text><text x="1040" y="401" font-size="17" text-anchor="middle">código</text><path d="M958.0,443 L1122.0,443" fill="none" stroke="#222" stroke-width="1.6"/><path d="M1220,325 L1220,355" fill="none" stroke="#222" stroke-width="1.6"/><path d="M1216,347 L1220,355 L1224,347 Z"/><rect x="1138.0" y="355" width="164" height="82" fill="white" stroke="#222" stroke-width="1.6"/><text x="1220" y="379" font-size="17" text-anchor="middle">3.2 Conduzir</text><text x="1220" y="401" font-size="17" text-anchor="middle">etapas iniciais</text><path d="M1138.0,443 L1302.0,443" fill="none" stroke="#222" stroke-width="1.6"/><path d="M1400,325 L1400,355" fill="none" stroke="#222" stroke-width="1.6"/><path d="M1396,347 L1400,355 L1404,347 Z"/><rect x="1318.0" y="355" width="164" height="82" fill="white" stroke="#222" stroke-width="1.6"/><text x="1400" y="379" font-size="17" text-anchor="middle">3.3 Orientar</text><text x="1400" y="401" font-size="17" text-anchor="middle">envio</text><path d="M1318.0,443 L1482.0,443" fill="none" stroke="#222" stroke-width="1.6"/><path d="M1580,325 L1580,355" fill="none" stroke="#222" stroke-width="1.6"/><path d="M1576,347 L1580,355 L1584,347 Z"/><rect x="1498.0" y="355" width="164" height="82" fill="white" stroke="#222" stroke-width="1.6"/><text x="1580" y="379" font-size="17" text-anchor="middle">3.4 Reunir</text><text x="1580" y="401" font-size="17" text-anchor="middle">resultados</text><path d="M1498.0,443 L1662.0,443" fill="none" stroke="#222" stroke-width="1.6"/><path d="M1760,325 L1760,355" fill="none" stroke="#222" stroke-width="1.6"/><path d="M1756,347 L1760,355 L1764,347 Z"/><rect x="1678.0" y="355" width="164" height="82" fill="white" stroke="#222" stroke-width="1.6"/><text x="1760" y="379" font-size="17" text-anchor="middle">3.5 Encerrar</text><text x="1760" y="401" font-size="17" text-anchor="middle">atividade</text><path d="M1678.0,443 L1842.0,443" fill="none" stroke="#222" stroke-width="1.6"/><path d="M2050,178 L2050,207" fill="none" stroke="#222" stroke-width="1.6"/><path d="M2046,199 L2050,207 L2054,199 Z"/><rect x="1910.0" y="207" width="280" height="82" fill="white" stroke="#222" stroke-width="1.6"/><text x="2050" y="231" font-size="17" text-anchor="middle">4. Obter</text><text x="2050" y="253" font-size="17" text-anchor="middle">a comprovação</text><text x="2050" y="275" font-size="17" text-anchor="middle">1 &gt; 2</text><path d="M2050,289 L2050,325" fill="none" stroke="#222" stroke-width="1.6"/><path d="M1960,325 L2140,325" fill="none" stroke="#222" stroke-width="1.6"/><path d="M1960,325 L1960,355" fill="none" stroke="#222" stroke-width="1.6"/><path d="M1956,347 L1960,355 L1964,347 Z"/><rect x="1878.0" y="355" width="164" height="82" fill="white" stroke="#222" stroke-width="1.6"/><text x="1960" y="379" font-size="17" text-anchor="middle">4.1 Solicitar</text><text x="1960" y="401" font-size="17" text-anchor="middle">declaração</text><path d="M1878.0,443 L2042.0,443" fill="none" stroke="#222" stroke-width="1.6"/><path d="M2140,325 L2140,355" fill="none" stroke="#222" stroke-width="1.6"/><path d="M2136,347 L2140,355 L2144,347 Z"/><rect x="2058.0" y="355" width="164" height="82" fill="white" stroke="#222" stroke-width="1.6"/><text x="2140" y="379" font-size="17" text-anchor="middle">4.2 Conferir</text><text x="2140" y="401" font-size="17" text-anchor="middle">comprovação</text><path d="M2058.0,443 L2222.0,443" fill="none" stroke="#222" stroke-width="1.6"/><text x="1120" y="484" font-size="19" text-anchor="middle">Retângulo: objetivo | Retângulo sublinhado: operação | &gt;: sequência entre filhos imediatos</text><text x="1120" y="516" font-size="17" text-anchor="middle">Fonte da notação: Barbosa e Silva (2010), figuras 6.1–6.2, p. 193–194. Processo documental; ver condições dos planos no texto.</text></g></svg>