<svg xmlns="http://www.w3.org/2000/svg" width="850" height="430" viewBox="0 0 850 430" role="img" aria-labelledby="title desc"><title id="title">CTT — C: chegar ao Senado</title><desc id="desc">Símbolos redesenhados conforme Barbosa e Silva (2010), figuras 6.1, 6.2 e 6.4–6.6. As tarefas correspondem à sessão de P1.</desc><defs>
<g id="usuario" fill="white" stroke="#222" stroke-width="1.7">
 <circle cx="0" cy="-15" r="9"/><path d="M-5,-7 Q-20,-3 -20,5 V29 H20 V5 Q20,-3 5,-7"/><path d="M-12,6 V29 M12,6 V29"/>
</g>
<g id="sistema" fill="white" stroke="#222" stroke-width="1.7">
 <rect x="-24" y="-21" width="48" height="34" rx="16"/><rect x="-20" y="-17" width="40" height="26" rx="12"/><rect x="-24" y="19" width="48" height="8" rx="4"/>
</g>
<g id="interativa">
 <use href="#sistema" transform="translate(-29,0) scale(.8)"/><use href="#usuario" transform="translate(31,0) scale(.9)"/>
 <path d="M-12,-3 H-4 V-9 L8,1 -4,11 V5 H-12 V11 L-24,1 -12,-9 Z" fill="#555"/>
</g>
<g id="abstrata" fill="white" stroke="#222" stroke-width="1.7">
 <path d="M-28,13 C-43,10 -41,-3 -33,-6 C-40,-17 -28,-26 -18,-21 C-14,-33 0,-29 3,-23 C12,-33 26,-26 25,-18 C39,-21 44,-7 35,0 C43,11 31,20 23,16 C20,29 6,29 1,22 C-9,30 -22,25 -22,18 C-30,24 -36,19 -28,13 Z"/>
</g>
</defs><rect width="100%" height="100%" fill="white"/><g font-family="Arial, sans-serif" fill="#151515"><text x="425.0" y="30" font-size="24" text-anchor="middle">CTT — C: chegar ao Senado</text><use href="#abstrata" transform="translate(425.0,82)"/><text x="425.0" y="130" font-size="18" text-anchor="middle">ChegarAoSenado</text><path d="M425.0,146 L106.25,223" fill="none" stroke="#222" stroke-width="1.6"/><path d="M425.0,146 L318.75,223" fill="none" stroke="#222" stroke-width="1.6"/><path d="M425.0,146 L531.25,223" fill="none" stroke="#222" stroke-width="1.6"/><path d="M425.0,146 L743.75,223" fill="none" stroke="#222" stroke-width="1.6"/><path d="M164.25,253 L260.75,253" fill="none" stroke="#222" stroke-width="1.6"/><rect x="185.5" y="239" width="54" height="28" fill="white"/><text x="212.5" y="260" font-size="20" text-anchor="middle">[]&gt;&gt;</text><path d="M376.75,253 L473.25,253" fill="none" stroke="#222" stroke-width="1.6"/><rect x="398.0" y="239" width="54" height="28" fill="white"/><text x="425.0" y="260" font-size="20" text-anchor="middle">&gt;&gt;</text><path d="M589.25,253 L685.75,253" fill="none" stroke="#222" stroke-width="1.6"/><rect x="610.5" y="239" width="54" height="28" fill="white"/><text x="637.5" y="260" font-size="20" text-anchor="middle">[]&gt;&gt;</text><use href="#interativa" transform="translate(106.25,253)"/><text x="106.25" y="303" font-size="17" text-anchor="middle">C1</text><text x="106.25" y="325" font-size="17" text-anchor="middle">PesquisarNoGoogle</text><use href="#sistema" transform="translate(318.75,253)"/><text x="318.75" y="303" font-size="17" text-anchor="middle">C2</text><text x="318.75" y="325" font-size="17" text-anchor="middle">ExibirResultados</text><text x="318.75" y="347" font-size="17" text-anchor="middle">Google</text><use href="#interativa" transform="translate(531.25,253)"/><text x="531.25" y="303" font-size="17" text-anchor="middle">C3</text><text x="531.25" y="325" font-size="17" text-anchor="middle">AcessarNoticia</text><use href="#sistema" transform="translate(743.75,253)"/><text x="743.75" y="303" font-size="17" text-anchor="middle">C4</text><text x="743.75" y="325" font-size="17" text-anchor="middle">CarregarNoticia</text><text x="425.0" y="405" font-size="16" text-anchor="middle">Notação: Barbosa e Silva (2010), figuras 6.4–6.6, p. 203–205.</text></g></svg>